<svg id="visual" viewBox="0 0 900 600" width="900" height="600" xmlns="http://www.w3.org/2000/svg" xmlns:xlink="http://www.w3.org/1999/xlink" version="1.1"><rect x="0" y="0" width="900" height="600" fill="#002233"></rect><path d="M390 600L419.7 585.7C449.3 571.3 508.7 542.7 554 514.2C599.3 485.7 630.7 457.3 578 428.8C525.3 400.3 388.7 371.7 373.2 343C357.7 314.3 463.3 285.7 509.2 257C555 228.3 541 199.7 511.3 171.2C481.7 142.7 436.3 114.3 453 85.8C469.7 57.3 548.3 28.7 587.7 14.3L627 0L900 0L900 14.3C900 28.7 900 57.3 900 85.8C900 114.3 900 142.7 900 171.2C900 199.7 900 228.3 900 257C900 285.7 900 314.3 900 343C900 371.7 900 400.3 900 428.8C900 457.3 900 485.7 900 514.2C900 542.7 900 571.3 900 585.7L900 600Z" fill="#001122" stroke-linecap="round" stroke-linejoin="miter"></path></svg>